<!--?xml version="1.0" standalone="no"?-->

<svg version="1.0" xmlns="http://www.w3.org/2000/svg" width="100%" height="100%" viewBox="0 0 420.000000 86.000000" preserveAspectRatio="xMidYMid meet">
<metadata>
Created by potrace 1.10, written by Peter Selinger 2001-2011
</metadata>
<g transform="translate(0.000000,86.000000) scale(0.100000,-0.100000)" fill="#f90101" stroke="none">
<path d="M0 815 c0 -38 3 -45 20 -45 28 0 25 -20 -2 -21 -17 -1 -19 -2 -5 -6
9 -2 17 -11 17 -19 0 -8 -8 -14 -17 -14 -15 0 -16 -2 -3 -10 13 -9 13 -11 0
-21 -12 -8 -12 -12 -2 -16 10 -4 12 -56 12 -226 -1 -237 0 -249 23 -294 36
-68 97 -97 207 -98 94 0 142 18 191 72 39 41 49 84 49 199 l0 104 -100 0 -100
0 0 -84 c0 -58 -4 -86 -13 -89 -9 -4 -8 -8 3 -16 21 -15 0 -46 -31 -46 l-24 0
0 265 0 265 30 0 c34 0 32 6 34 -130 l1 -90 101 3 101 3 -4 112 c-4 126 -17
160 -78 202 -47 32 -106 44 -222 45 l-97 0 -4 -27 -4 -28 -2 28 c-2 42 -29 34
-34 -10 l-4 -38 -1 38 c-2 30 -6 37 -22 37 -17 0 -20 -7 -20 -45z m192 -470
c-1 -5 -19 -11 -40 -13 -52 -4 -124 7 -116 19 8 13 160 7 156 -6z m260 -3
c-19 -13 -109 -14 -117 -2 -4 6 17 10 62 10 38 0 62 -4 55 -8z m-59 -49 c-7
-2 -19 -2 -25 0 -7 3 -2 5 12 5 14 0 19 -2 13 -5z" class="svg-elem-1"></path>
<path d="M448 817 c23 -23 48 -60 57 -82 l15 -40 -5 64 c-3 35 -5 72 -5 82 0
16 -8 19 -52 19 l-52 0 42 -43z" class="svg-elem-2"></path>
<path d="M540 816 c0 -42 2 -46 25 -46 14 0 25 -4 25 -9 0 -4 -11 -6 -25 -3
-15 2 -25 0 -25 -7 0 -6 9 -11 21 -11 11 0 18 -4 14 -10 -3 -5 -12 -7 -20 -3
-8 3 -15 0 -15 -6 0 -6 8 -11 18 -12 14 0 14 -2 -3 -9 -11 -5 -14 -9 -7 -9 15
-1 17 -61 1 -61 -5 0 -7 -4 -4 -10 3 -5 6 -81 6 -167 0 -266 22 -339 115 -384
125 -60 283 -20 333 85 21 43 22 58 22 294 0 150 -5 260 -11 277 -18 48 -50
85 -93 107 -37 20 -61 23 -209 26 l-168 4 0 -46z m278 -346 c1 -135 0 -255 -3
-268 -4 -17 -12 -22 -28 -20 -22 3 -22 4 -25 248 -1 135 0 255 3 268 4 17 12
22 28 20 22 -3 22 -4 25 -248z m-83 -125 c0 -11 -97 -19 -132 -10 -13 3 -23
10 -23 16 0 6 29 9 78 7 43 -2 77 -7 77 -13z m265 6 c0 -14 -27 -21 -80 -21
-55 0 -83 8 -74 21 7 12 154 12 154 0z" class="svg-elem-3"></path>
<path d="M973 823 c73 -70 72 -66 72 -374 l0 -276 -30 -49 c-45 -71 -106 -106
-199 -112 -158 -10 -262 67 -284 209 l-8 54 -8 -50 c-23 -144 -127 -222 -283
-213 -111 7 -176 44 -217 123 -16 29 -16 28 -16 -52 l0 -83 2100 0 2100 0 0
430 0 430 -67 0 -68 0 32 -20 c18 -10 45 -38 60 -61 l28 -43 0 -290 c0 -252
-2 -295 -17 -321 -24 -44 -58 -72 -103 -84 -56 -15 -367 -15 -383 1 -7 7 -12
39 -12 74 0 60 -1 61 -25 56 -23 -4 -25 -8 -25 -61 0 -31 -5 -62 -12 -69 -8
-8 -47 -12 -109 -12 -90 0 -99 2 -113 22 -9 13 -16 43 -16 70 l0 48 -98 0
c-63 0 -102 4 -110 12 -7 7 -12 43 -12 91 0 73 7 102 80 324 44 134 80 248 80
253 0 6 -84 10 -211 10 l-211 0 32 -26 c44 -37 60 -75 67 -155 8 -94 -5 -109
-94 -109 -34 0 -63 -3 -62 -7 0 -5 26 -27 58 -49 86 -62 111 -117 111 -248 0
-118 -19 -170 -78 -208 -59 -40 -107 -51 -191 -46 -129 8 -200 61 -233 175
-11 38 -17 49 -17 32 -1 -15 -8 -42 -16 -62 -38 -92 -125 -147 -234 -147 -88
0 -135 16 -192 68 l-49 44 0 -36 c0 -59 -21 -66 -197 -66 -146 0 -153 1 -167
22 -14 19 -16 76 -16 420 l0 398 -77 0 -78 0 30 -20 c70 -44 99 -118 94 -233
-3 -57 -9 -80 -24 -97 -17 -19 -17 -24 -5 -43 37 -59 40 -74 40 -197 0 -111
-3 -130 -23 -165 -37 -67 -69 -76 -281 -82 l-183 -6 -16 24 c-15 21 -17 67
-17 421 l0 398 -67 0 -67 0 37 -37z" class="svg-elem-4"></path>
<path d="M1100 458 l0 -403 194 5 c178 5 197 7 223 26 40 30 55 90 51 211 -4
116 -20 150 -76 168 -41 12 -40 18 3 34 47 17 57 40 57 128 -1 99 -29 159 -89
188 -23 11 -44 27 -46 35 -4 11 -5 11 -6 -2 -1 -22 -31 -24 -31 -3 0 13 -22
15 -140 15 l-140 0 0 -402z m233 243 c21 -8 26 -17 28 -60 2 -28 0 -51 -5 -51
-4 0 -5 -7 -2 -16 4 -10 -1 -22 -11 -30 -37 -28 -43 -18 -43 76 0 50 2 90 4
90 3 0 16 -4 29 -9z m14 -299 c12 -8 23 -162 11 -162 -4 0 -5 -6 -2 -13 4 -11
-32 -37 -51 -37 -3 0 -5 50 -5 110 0 98 2 110 18 110 9 0 22 -4 29 -8z m-67
-51 c0 -13 -29 -18 -95 -17 -37 1 -60 6 -62 14 -4 9 16 12 76 12 45 0 81 -4
81 -9z m263 -6 c-2 -5 -20 -11 -40 -13 -52 -5 -125 7 -117 19 8 13 160 7 157
-6z" class="svg-elem-5"></path>
<path d="M1640 458 l0 -403 165 3 165 3 0 88 c0 76 -3 90 -21 107 -21 18 -21
18 -41 -9 -12 -16 -29 -27 -44 -27 l-24 0 0 320 0 320 -100 0 -100 0 0 -402z
m173 -113 c-4 -16 -145 -13 -151 3 -3 10 14 12 75 10 45 -2 77 -7 76 -13z" class="svg-elem-6"></path>
<path d="M1870 560 c0 -165 4 -300 8 -300 5 0 17 9 27 20 11 13 25 18 37 14
17 -5 18 4 18 160 0 134 -3 166 -14 166 -19 0 -39 27 -31 41 4 6 9 37 10 68 1
32 8 67 14 79 21 40 14 52 -29 52 l-40 0 0 -300z" class="svg-elem-7"></path>
<path d="M1972 823 c-7 -21 -15 -45 -18 -54 -4 -13 1 -15 25 -11 18 2 31 0 31
-6 0 -6 -17 -13 -37 -15 l-38 -4 38 -1 c32 -2 36 -4 29 -19 -5 -10 -8 -26 -7
-35 3 -14 -4 -18 -31 -18 -19 0 -34 -5 -34 -11 0 -7 12 -10 30 -7 l30 5 1
-206 c1 -113 1 -210 0 -215 -4 -22 25 -82 56 -117 87 -97 289 -88 368 15 38
50 48 136 43 376 -4 184 -6 209 -25 245 -48 92 -90 108 -288 113 l-160 4 -13
-39z m273 -373 c0 -263 0 -265 -21 -268 -30 -4 -32 15 -34 276 -1 228 5 266
38 260 15 -3 17 -28 17 -268z m-80 -104 c0 -12 -80 -19 -122 -11 -19 3 -31 10
-27 16 7 12 149 7 149 -5z m270 4 c3 -5 5 -10 3 -11 -70 -14 -174 -7 -163 12
8 12 152 12 160 -1z" class="svg-elem-8"></path>
<path d="M2393 839 c15 -12 41 -44 57 -73 17 -28 30 -43 30 -34 0 9 -4 20 -10
23 -5 3 -10 28 -10 56 l0 49 -47 0 -48 -1 28 -20z" class="svg-elem-9"></path>
<path d="M2500 826 c0 -19 -3 -41 -6 -50 -4 -12 0 -16 16 -16 16 0 20 -4 16
-16 -3 -9 -6 -18 -6 -20 0 -3 -4 -2 -10 1 -5 3 -10 1 -10 -4 0 -6 5 -11 10
-11 6 0 10 -7 10 -15 0 -8 -4 -15 -8 -15 -8 0 0 -78 13 -137 8 -37 59 -87 151
-149 47 -32 90 -66 95 -75 5 -10 9 -39 9 -64 0 -50 -18 -79 -48 -73 -14 3 -17
15 -17 78 l0 75 -65 22 c-36 13 -73 27 -82 32 -13 8 -22 4 -44 -21 -15 -19
-22 -34 -15 -36 6 -2 11 -29 11 -65 0 -110 25 -158 105 -200 59 -31 192 -31
257 1 75 37 93 75 92 197 0 148 -28 189 -202 295 -56 34 -65 52 -60 116 3 34
6 39 28 39 23 0 25 -4 28 -57 l3 -58 94 0 95 0 0 60 c0 96 -30 146 -110 182
-26 11 -74 16 -192 17 l-158 2 0 -35z m444 -475 c10 -15 -17 -19 -94 -16 -112
5 -114 25 -3 25 51 0 94 -4 97 -9z" class="svg-elem-10"></path>
<path d="M3256 596 c-73 -223 -86 -274 -86 -330 l0 -66 115 0 115 0 0 -70 0
-70 100 0 100 0 0 70 c0 70 0 70 28 70 27 0 27 0 27 71 l0 71 -27 -4 -28 -5 0
259 0 259 -119 -2 c-66 -1 -124 1 -129 5 -6 3 -47 -108 -96 -258z m146 -98
l-4 -156 -39 -4 c-31 -3 -38 -1 -34 12 18 63 65 259 65 276 0 18 10 39 15 32
1 -2 -1 -73 -3 -160z m-97 -58 c4 -6 -9 -10 -32 -9 -30 0 -34 2 -18 9 27 12
43 12 50 0z m245 0 c11 -7 -5 -10 -53 -10 -38 0 -66 4 -63 8 7 12 98 14 116 2z" class="svg-elem-11"></path>
<path d="M3362 390 c0 -14 2 -19 5 -12 2 6 2 18 0 25 -3 6 -5 1 -5 -13z" class="svg-elem-12"></path>
<path d="M3621 616 c0 -211 2 -245 15 -250 9 -3 18 -6 20 -6 2 0 4 113 4 250
0 242 -1 250 -20 250 -19 0 -19 -8 -19 -244z" class="svg-elem-13"></path>
<path d="M3690 459 l0 -401 188 4 c154 3 193 6 219 21 60 32 63 46 63 357 1
257 -1 285 -18 318 -36 70 -98 86 -329 87 -57 0 -103 3 -103 8 0 4 -4 7 -10 7
-7 0 -10 -140 -10 -401z m254 235 c14 -13 16 -48 16 -229 0 -118 -4 -225 -9
-238 -5 -13 -19 -27 -30 -30 -21 -5 -21 -3 -21 254 0 218 2 259 14 259 8 0 22
-7 30 -16z m-94 -254 c10 -7 -8 -10 -60 -9 -51 0 -69 3 -55 9 27 12 97 12 115
0z m270 0 c10 -7 -8 -10 -60 -9 -51 0 -69 3 -55 9 27 12 97 12 115 0z" class="svg-elem-14"></path>
<path d="M1940 700 c0 -5 9 -10 19 -10 11 0 23 5 26 10 4 6 -5 10 -19 10 -14
0 -26 -4 -26 -10z" class="svg-elem-15"></path>
<path d="M522 660 c0 -14 2 -19 5 -12 2 6 2 18 0 25 -3 6 -5 1 -5 -13z" class="svg-elem-16"></path>
<path d="M253 465 c0 -127 3 -177 6 -127 8 107 14 112 135 112 69 0 94 -4 108
-17 17 -15 18 -14 18 22 0 36 -1 37 -18 22 -27 -24 -203 -25 -223 -1 -9 10
-16 53 -20 108 -3 59 -6 17 -6 -119z" class="svg-elem-17"></path>
<path d="M2490 461 l0 -94 21 27 c13 16 30 26 47 26 l26 0 -32 33 c-17 17 -38
48 -46 67 -15 35 -15 34 -16 -59z" class="svg-elem-18"></path>
</g>
</svg>
